<svg viewBox="0 0 1400 600" xmlns="http://www.w3.org/2000/svg" font-family="Arial, Helvetica, sans-serif">
  <defs>
    <linearGradient id="leftGrad03" x1="0%" y1="0%" x2="100%" y2="100%">
      <stop offset="0%" stop-color="#7A3E00"/><stop offset="100%" stop-color="#4E2600"/>
    </linearGradient>
    <radialGradient id="glow03" cx="30%" cy="20%" r="75%">
      <stop offset="0%" stop-color="#F5A623" stop-opacity="0.35"/><stop offset="100%" stop-color="#F5A623" stop-opacity="0"/>
    </radialGradient>
  </defs>
  <rect x="0" y="0" width="1400" height="600" fill="#4E2600"/>
  <rect x="0" y="0" width="630" height="600" fill="url(#leftGrad03)"/>
  <rect x="0" y="0" width="630" height="600" fill="url(#glow03)"/>
  <text x="40" y="150" font-size="130" font-weight="800" fill="#FFFFFF" opacity="0.08">03</text>
  <g transform="translate(150,200) scale(0.8)"><g><path d="M -70 -30 Q -70 -95 0 -95 Q 70 -95 70 -30 Z" fill="none" stroke="#FBE0B3" stroke-width="9"/>
      <rect x="-95" y="-30" width="190" height="150" rx="14" fill="#FBE0B3"/>
      <rect x="-95" y="-30" width="190" height="40" rx="14" fill="#F5A623" opacity="0.35"/>
      <circle cx="-30" cy="55" r="9" fill="#F5A623"/><circle cx="30" cy="55" r="9" fill="#F5A623"/></g></g>
  <text x="40" y="330" font-size="15" font-weight="700" letter-spacing="3" fill="#FBE0B3">RETAIL</text>
  <text x="40" y="366" font-size="30" font-weight="800" fill="#FFFFFF" letter-spacing="0.5">RETAIL SALES &amp; CUSTOMER</text>
  <text x="40" y="400" font-size="30" font-weight="800" fill="#FFFFFF" letter-spacing="0.5">SEGMENTATION</text>
  <line x1="40" y1="424" x2="140" y2="424" stroke="#FBE0B3" stroke-width="3"/><rect x="40" y="444" width="43" height="26" rx="13" fill="#FFFFFF" fill-opacity="0.14" stroke="#FBE0B3" stroke-opacity="0.35" stroke-width="1"/>
        <text x="61" y="461" font-family="Arial, Helvetica, sans-serif" font-size="11.5" font-weight="700" fill="#FBE0B3" text-anchor="middle">SQL</text><rect x="91" y="444" width="56" height="26" rx="13" fill="#FFFFFF" fill-opacity="0.14" stroke="#FBE0B3" stroke-opacity="0.35" stroke-width="1"/>
        <text x="119" y="461" font-family="Arial, Helvetica, sans-serif" font-size="11.5" font-weight="700" fill="#FBE0B3" text-anchor="middle">Excel</text><rect x="155" y="444" width="98" height="26" rx="13" fill="#FFFFFF" fill-opacity="0.14" stroke="#FBE0B3" stroke-opacity="0.35" stroke-width="1"/>
        <text x="204" y="461" font-family="Arial, Helvetica, sans-serif" font-size="11.5" font-weight="700" fill="#FBE0B3" text-anchor="middle">Power Query</text><rect x="261" y="444" width="77" height="26" rx="13" fill="#FFFFFF" fill-opacity="0.14" stroke="#FBE0B3" stroke-opacity="0.35" stroke-width="1"/>
        <text x="300" y="461" font-family="Arial, Helvetica, sans-serif" font-size="11.5" font-weight="700" fill="#FBE0B3" text-anchor="middle">Power BI</text><rect x="346" y="444" width="167" height="26" rx="13" fill="#FFFFFF" fill-opacity="0.14" stroke="#FBE0B3" stroke-opacity="0.35" stroke-width="1"/>
        <text x="430" y="461" font-family="Arial, Helvetica, sans-serif" font-size="11.5" font-weight="700" fill="#FBE0B3" text-anchor="middle">Dashboard Development</text><rect x="630" y="0" width="770" height="600" fill="#EDEEF2"/>
    <rect x="630" y="0" width="770" height="66" fill="#FFFFFF"/>
    <line x1="630" y1="66" x2="1400" y2="66" stroke="#DADEE5" stroke-width="2"/>
    <rect x="658" y="20" width="26" height="26" rx="6" fill="#F5A623"/>
    <text x="696" y="39" font-family="Arial, Helvetica, sans-serif" font-size="19" font-weight="700" fill="#20242C" letter-spacing="0.5">RETAIL SALES &amp; SEGMENTATION DASHBOARD</text><rect x="1276" y="21" width="96" height="24" rx="12" fill="#FCEACB"/>
        <text x="1324" y="37" font-family="Arial, Helvetica, sans-serif" font-size="10.5" font-weight="700" fill="#8A4B00" text-anchor="middle" letter-spacing="0.3">5 SEGMENTS</text><rect x="658.0" y="92" width="227.33333333333334" height="78" rx="10" fill="#FFFFFF" stroke="#E0E3E9" stroke-width="1.5"/>
        <text x="674.0" y="126" font-family="Arial, Helvetica, sans-serif" font-size="23" font-weight="800" fill="#8A4B00">32</text>
        <text x="674.0" y="150" font-family="Arial, Helvetica, sans-serif" font-size="12.5" fill="#5B6270" letter-spacing="0.3">PRODUCT CATEGORIES</text><rect x="901.3333333333334" y="92" width="227.33333333333334" height="78" rx="10" fill="#FFFFFF" stroke="#E0E3E9" stroke-width="1.5"/>
        <text x="917.3333333333334" y="126" font-family="Arial, Helvetica, sans-serif" font-size="23" font-weight="800" fill="#8A4B00">$412K</text>
        <text x="917.3333333333334" y="150" font-family="Arial, Helvetica, sans-serif" font-size="12.5" fill="#5B6270" letter-spacing="0.3">REVENUE ANALYZED</text><rect x="1144.6666666666667" y="92" width="227.33333333333334" height="78" rx="10" fill="#FFFFFF" stroke="#E0E3E9" stroke-width="1.5"/>
        <text x="1160.6666666666667" y="126" font-family="Arial, Helvetica, sans-serif" font-size="23" font-weight="800" fill="#8A4B00">4.1x</text>
        <text x="1160.6666666666667" y="150" font-family="Arial, Helvetica, sans-serif" font-size="12.5" fill="#5B6270" letter-spacing="0.3">LOYALIST LTV</text><rect x="658" y="186" width="300" height="250" rx="10" fill="#FFFFFF" stroke="#E0E3E9" stroke-width="1.5"/>
    <text x="674" y="210" font-family="Arial, Helvetica, sans-serif" font-size="12.5" font-weight="700" fill="#3A3F4B" letter-spacing="0.3">REVENUE SHARE BY SEGMENT</text><circle cx="753" cy="326" r="66" fill="none" stroke="#EEF0F3" stroke-width="22"/><circle cx="753" cy="326" r="66" fill="none" stroke="#F5A623" stroke-width="22"
            stroke-dasharray="34.0 66.0" pathLength="100" stroke-dashoffset="0"
            transform="rotate(-90 753 326)" stroke-linecap="butt"/><circle cx="753" cy="326" r="66" fill="none" stroke="#F8C15F" stroke-width="22"
            stroke-dasharray="26.0 74.0" pathLength="100" stroke-dashoffset="-34.0"
            transform="rotate(-90 753 326)" stroke-linecap="butt"/><circle cx="753" cy="326" r="66" fill="none" stroke="#FBE0B3" stroke-width="22"
            stroke-dasharray="20.0 80.0" pathLength="100" stroke-dashoffset="-60.0"
            transform="rotate(-90 753 326)" stroke-linecap="butt"/><circle cx="753" cy="326" r="66" fill="none" stroke="#FDEDD1" stroke-width="22"
            stroke-dasharray="12.0 88.0" pathLength="100" stroke-dashoffset="-80.0"
            transform="rotate(-90 753 326)" stroke-linecap="butt"/><circle cx="753" cy="326" r="66" fill="none" stroke="#EEF0F3" stroke-width="22"
            stroke-dasharray="8.0 92.0" pathLength="100" stroke-dashoffset="-92.0"
            transform="rotate(-90 753 326)" stroke-linecap="butt"/><circle cx="843" cy="244" r="5" fill="#F5A623"/>
        <text x="857" y="248" font-family="Arial, Helvetica, sans-serif" font-size="11" fill="#4A4F5A">Loyalists</text>
        <text x="993" y="248" font-family="Arial, Helvetica, sans-serif" font-size="11" font-weight="700" fill="#8A4B00">34%</text><circle cx="843" cy="262" r="5" fill="#F8C15F"/>
        <text x="857" y="266" font-family="Arial, Helvetica, sans-serif" font-size="11" fill="#4A4F5A">Frequent</text>
        <text x="993" y="266" font-family="Arial, Helvetica, sans-serif" font-size="11" font-weight="700" fill="#8A4B00">26%</text><circle cx="843" cy="280" r="5" fill="#FBE0B3"/>
        <text x="857" y="284" font-family="Arial, Helvetica, sans-serif" font-size="11" fill="#4A4F5A">Discount</text>
        <text x="993" y="284" font-family="Arial, Helvetica, sans-serif" font-size="11" font-weight="700" fill="#8A4B00">20%</text><circle cx="843" cy="298" r="5" fill="#FDEDD1"/>
        <text x="857" y="302" font-family="Arial, Helvetica, sans-serif" font-size="11" fill="#4A4F5A">New</text>
        <text x="993" y="302" font-family="Arial, Helvetica, sans-serif" font-size="11" font-weight="700" fill="#8A4B00">12%</text><circle cx="843" cy="316" r="5" fill="#EEF0F3"/>
        <text x="857" y="320" font-family="Arial, Helvetica, sans-serif" font-size="11" fill="#4A4F5A">At-Risk</text>
        <text x="993" y="320" font-family="Arial, Helvetica, sans-serif" font-size="11" font-weight="700" fill="#8A4B00">8%</text><rect x="974" y="186" width="398" height="250" rx="10" fill="#FFFFFF" stroke="#E0E3E9" stroke-width="1.5"/>
    <text x="990" y="210" font-family="Arial, Helvetica, sans-serif" font-size="12.5" font-weight="700" fill="#3A3F4B" letter-spacing="0.3">PROFIT VS RETURN RATE BY CATEGORY</text><line x1="1173.0" y1="228" x2="1173.0" y2="418" stroke="#DDE0E6" stroke-width="1.5"/><circle cx="990" cy="220" r="4" fill="#F5A623"/><text x="998" y="224" font-family="Arial, Helvetica, sans-serif" font-size="9.5" fill="#8A8F99">PROFIT</text>
    <circle cx="1243.0" cy="220" r="4" fill="#C9CFDA"/><text x="1251.0" y="224" font-family="Arial, Helvetica, sans-serif" font-size="9.5" fill="#8A8F99">RETURNS</text><text x="1173.0" y="239" font-family="Arial, Helvetica, sans-serif" font-size="10.5" font-weight="700" fill="#3A3F4B" text-anchor="middle">Electronics</text><rect x="1064" y="245" width="109" height="14" rx="4" fill="#F5A623" opacity="0.85"/><rect x="1173" y="245" width="34" height="14" rx="4" fill="#C9CFDA"/><text x="1173.0" y="278" font-family="Arial, Helvetica, sans-serif" font-size="10.5" font-weight="700" fill="#3A3F4B" text-anchor="middle">Apparel</text><rect x="1086" y="284" width="87" height="14" rx="4" fill="#F5A623" opacity="0.85"/><rect x="1173" y="284" width="51" height="14" rx="4" fill="#C9CFDA"/><text x="1173.0" y="317" font-family="Arial, Helvetica, sans-serif" font-size="10.5" font-weight="700" fill="#3A3F4B" text-anchor="middle">Home Goods</text><rect x="1106" y="323" width="67" height="14" rx="4" fill="#F5A623" opacity="0.85"/><rect x="1173" y="323" width="24" height="14" rx="4" fill="#C9CFDA"/><text x="1173.0" y="356" font-family="Arial, Helvetica, sans-serif" font-size="10.5" font-weight="700" fill="#3A3F4B" text-anchor="middle">Toys</text><rect x="1125" y="362" width="48" height="14" rx="4" fill="#F5A623" opacity="0.85"/><rect x="1173" y="362" width="18" height="14" rx="4" fill="#C9CFDA"/><text x="1173.0" y="395" font-family="Arial, Helvetica, sans-serif" font-size="10.5" font-weight="700" fill="#3A3F4B" text-anchor="middle">Grocery</text><rect x="1137" y="401" width="36" height="14" rx="4" fill="#F5A623" opacity="0.85"/><rect x="1173" y="401" width="10" height="14" rx="4" fill="#C9CFDA"/><rect x="658" y="452" width="714" height="124" rx="10" fill="#FFFFFF" stroke="#E0E3E9" stroke-width="1.5"/>
    <text x="674" y="476" font-family="Arial, Helvetica, sans-serif" font-size="12.5" font-weight="700" fill="#3A3F4B" letter-spacing="0.3">TOP CUSTOMER SEGMENTS</text><rect x="674" y="494" width="199" height="25" rx="12" fill="#FBE0B3"/>
        <text x="773" y="510" font-family="Arial, Helvetica, sans-serif" font-size="11" font-weight="700" fill="#8A4B00" text-anchor="middle">High-Value Loyalists · 1,240</text><rect x="881" y="494" width="154" height="25" rx="12" fill="#FBE0B3"/>
        <text x="958" y="510" font-family="Arial, Helvetica, sans-serif" font-size="11" font-weight="700" fill="#8A4B00" text-anchor="middle">Frequent Buyers · 980</text><rect x="1043" y="494" width="160" height="25" rx="12" fill="#EEF0F3"/>
        <text x="1123" y="510" font-family="Arial, Helvetica, sans-serif" font-size="11" font-weight="700" fill="#4A4F5A" text-anchor="middle">Discount Seekers · 760</text><rect x="1211" y="494" width="141" height="25" rx="12" fill="#EEF0F3"/>
        <text x="1282" y="510" font-family="Arial, Helvetica, sans-serif" font-size="11" font-weight="700" fill="#4A4F5A" text-anchor="middle">New Customers · 590</text><rect x="674" y="529" width="103" height="25" rx="12" fill="#EEF0F3"/>
        <text x="725" y="546" font-family="Arial, Helvetica, sans-serif" font-size="11" font-weight="700" fill="#4A4F5A" text-anchor="middle">At-Risk · 410</text></svg>